<svg xmlns="http://www.w3.org/2000/svg" width="1440" height="560" preserveAspectRatio="none" viewBox="0 0 1440 560">
  <g mask="url(&quot;#SvgjsMask1037&quot;)" fill="none">
    <path d="M1396.62,212.475C1425.441,210.788,1448.508,192.614,1464.44,168.538C1482.769,140.839,1501.861,106.969,1485.599,78.009C1469.159,48.733,1430.196,47.762,1396.62,47.761C1363.043,47.76,1325.762,49.743,1307.636,78.007C1288.439,107.941,1293.875,147.715,1313.5,177.371C1331.29,204.254,1364.439,214.358,1396.62,212.475" fill="rgba(41, 255, 0, 0.4)" class="triangle-float2"></path>
    <path d="M431.954,553.725C449.465,553.826,467.993,550.228,477.448,535.489C487.564,519.719,487.116,499.001,477.29,483.048C467.895,467.795,449.863,461.19,431.954,461.628C414.865,462.046,399.183,470.569,390.302,485.175C381.044,500.401,378.108,519.739,387.361,534.968C396.336,549.738,414.671,553.625,431.954,553.725" fill="rgba(41, 255, 0, 0.4)" class="triangle-float1"></path>
    <path d="M1261.052,542.671C1290.531,540.564,1318.335,529.312,1334.467,504.549C1352.32,477.145,1360.333,442.578,1345.122,413.624C1328.969,382.877,1295.772,365.73,1261.052,364.804C1224.543,363.83,1188.095,377.89,1168.837,408.922C1148.563,441.59,1145.072,484.869,1166.896,516.523C1186.713,545.266,1226.229,545.159,1261.052,542.671" fill="rgba(41, 255, 0, 0.4)" class="triangle-float1"></path>
    <path d="M808.105,679.554C851.475,682.731,900.966,675.293,922.291,637.395C943.38,599.916,919.049,557.067,898.186,519.462C876.374,480.146,853.065,431.306,808.105,431.582C763.351,431.857,738.732,479.946,719.918,520.555C704.6,553.619,701.956,590.684,719.63,622.551C737.868,655.434,770.603,676.807,808.105,679.554" fill="rgba(41, 255, 0, 0.4)" class="triangle-float2"></path>
    <path d="M734.66,243.955C789.645,242.854,846.033,224.722,873.234,176.924C900.197,129.543,887.172,71.809,859.278,24.97C832.134,-20.61,787.71,-55.782,734.66,-55.771C681.628,-55.76,638.175,-19.989,610.135,25.024C580.012,73.381,557.96,133.152,586.127,182.674C614.508,232.572,677.267,245.104,734.66,243.955" fill="rgba(41, 255, 0, 0.4)" class="triangle-float3"></path>
    <path d="M-21.555,438.622C-6.198,438.699,9.853,434.998,18.104,422.046C26.908,408.226,27.312,389.817,18.224,376.182C9.891,363.681,-6.543,361.953,-21.555,362.546C-35.278,363.088,-48.678,367.659,-56.238,379.125C-64.644,391.873,-68.218,408.458,-60.528,421.65C-52.88,434.771,-36.742,438.546,-21.555,438.622" fill="rgba(41, 255, 0, 0.4)" class="triangle-float2"></path>
    <path d="M213.925,195.003C227.621,194.7,237.264,183.507,244.518,171.886C252.401,159.257,260.894,144.292,253.723,131.246C246.403,117.928,229.116,115.812,213.925,116.229C199.631,116.621,184.901,120.956,177.738,133.331C170.563,145.726,173.647,160.94,180.895,173.293C188.041,185.472,199.807,195.315,213.925,195.003" fill="rgba(41, 255, 0, 0.4)" class="triangle-float3"></path>
    <path d="M1289.473,152.918C1315.367,152.224,1337.208,135.084,1349.529,112.299C1361.231,90.66,1360.071,65.247,1348.672,43.448C1336.261,19.713,1316.251,-3.117,1289.473,-2.55C1263.298,-1.996,1247.211,22.999,1234.464,45.867C1222.174,67.915,1212.033,93.224,1223.57,115.675C1235.93,139.729,1262.439,153.642,1289.473,152.918" fill="rgba(41, 255, 0, 0.4)" class="triangle-float2"></path>
    <path d="M345.076,569.198C367.649,570.021,392.058,565.637,404.096,546.524C416.771,526.401,414.69,499.636,401.246,480.019C389.23,462.485,366.27,458.784,345.076,460.401C326.937,461.785,311.759,472.225,302.021,487.591C291.386,504.374,283.793,524.905,293.064,542.478C302.812,560.955,324.199,568.437,345.076,569.198" fill="rgba(41, 255, 0, 0.4)" class="triangle-float1"></path>
  </g>
  <defs>
    <mask id="SvgjsMask1037">
      <rect width="1440" height="560" fill="#ffffff"></rect>
    </mask>
  </defs>
  <style>
    @keyframes float1 {
      0%{transform: translate(0, 0)}
      50%{transform: translate(-10px, 0)}
      100%{transform: translate(0, 0)}
    }
    .triangle-float1 {
      animation: float1 5s infinite;
    }
    @keyframes float2 {
      0%{transform: translate(0, 0)}
      50%{transform: translate(-5px, -5px)}
      100%{transform: translate(0, 0)}
    }
    .triangle-float2 {
      animation: float2 4s infinite;
    }
    @keyframes float3 {
      0%{transform: translate(0, 0)}
      50%{transform: translate(0, -10px)}
      100%{transform: translate(0, 0)}
    }
    .triangle-float3 {
      animation: float3 6s infinite;
    }
  </style>
</svg>
